<?xml version="1.0" encoding="UTF-8" standalone="no"?>
<!-- Created with Inkscape (http://www.inkscape.org/) -->

<svg
   width="600"
   height="500"
   viewBox="0 0 158.74998 132.29164"
   version="1.1"
   id="svg4505"
   xml:space="preserve"
   xmlns="http://www.w3.org/2000/svg"
   xmlns:svg="http://www.w3.org/2000/svg"><defs
     id="defs4502" /><g
     id="layer6"
     style="fill:#62b8ff;fill-opacity:1"
     transform="translate(0,26.458344)"><rect
       style="fill:#82d7ff;fill-opacity:1;fill-rule:evenodd;stroke-width:0.303533"
       id="rect21918"
       width="158.75"
       height="132.29167"
       x="-1.503982e-14"
       y="-26.458344" /></g><path
     style="fill:none;stroke:#000000;stroke-width:0.30806"
     d="m -17.173928,66.064461 c 65.689416,-70.5950583 129.282368,-70.2291356 193.923538,0 0.37295,27.988467 6.73694,81.310739 -11.62602,81.310739 -100.467489,0 -82.464733,0.59038 -168.357843,0.59038 -20.908685,0 -13.559601,-51.869946 -13.939675,-81.901119 z"
     id="path521" /><ellipse
     style="fill:#ffdd55;stroke-width:0.264583"
     id="path1998"
     cx="-9.0277004"
     cy="-0.67081434"
     rx="8.9364452"
     ry="9.2250891" /><path
     id="ellipse2561"
     style="fill:#f9f9f9;stroke-width:0.264583"
     d="m -8.0304177,-9.8549869 a 8.9364452,9.2250891 0 0 1 2.01486,5.8347845 8.9364452,9.2250891 0 0 1 -8.9364033,9.2252752 8.9364452,9.2250891 0 0 1 -1.759072,-0.186552 8.9364452,9.2250891 0 0 0 6.9225753,3.396175 8.9364452,9.2250891 0 0 0 8.93640998,-9.22527517 8.9364452,9.2250891 0 0 0 -7.17836998,-9.04440753 z" /><g
     id="layer3"
     style="fill:#cccccc"
     transform="translate(0,13.229167)"><rect
       style="fill:#cccccc;stroke-width:0.226722"
       id="rect1927"
       width="14.213477"
       height="107.52179"
       x="-1.503982e-14"
       y="11.540714" /><rect
       style="fill:#cccccc;stroke-width:0.145437"
       id="rect1929"
       width="14.213477"
       height="44.244484"
       x="13.758328"
       y="74.818024" /><rect
       style="fill:#cccccc;stroke-width:0.177964"
       id="rect1931"
       width="14.213477"
       height="66.248032"
       x="27.51667"
       y="52.814472" /><rect
       style="fill:#cccccc;stroke-width:0.256305"
       id="rect1933"
       width="19.476858"
       height="100.27837"
       x="41.275017"
       y="18.78413" /><rect
       style="fill:#cccccc;stroke-width:0.221759"
       id="rect1935"
       width="26.17359"
       height="55.861259"
       x="60.325035"
       y="63.201244" /><rect
       style="fill:#cccccc;stroke-width:0.248835"
       id="rect1937"
       width="19.476858"
       height="94.518997"
       x="86.254227"
       y="24.543503" /><rect
       style="fill:#cccccc;stroke-width:0.216128"
       id="rect1939"
       width="19.476858"
       height="71.304756"
       x="105.30422"
       y="47.757748" /><rect
       style="fill:#cccccc;stroke-width:0.181234"
       id="rect1941"
       width="19.476858"
       height="50.139187"
       x="124.35421"
       y="68.923317" /><rect
       style="fill:#cccccc;stroke-width:0.260915"
       id="rect1943"
       width="19.476858"
       height="103.91898"
       x="139.42731"
       y="15.143521" /><rect
       style="fill:#cccccc;stroke-width:0.226722"
       id="rect2169"
       width="14.213477"
       height="107.52179"
       x="-1.503982e-14"
       y="11.540714" /><rect
       style="fill:#cccccc;stroke-width:0.145437"
       id="rect2171"
       width="14.213477"
       height="44.244484"
       x="13.758328"
       y="74.818024" /><rect
       style="fill:#cccccc;stroke-width:0.177964"
       id="rect2173"
       width="14.213477"
       height="66.248032"
       x="27.51667"
       y="52.814472" /><rect
       style="fill:#cccccc;stroke-width:0.256305"
       id="rect2175"
       width="19.476858"
       height="100.27837"
       x="41.275017"
       y="18.78413" /><rect
       style="fill:#cccccc;stroke-width:0.221759"
       id="rect2177"
       width="26.17359"
       height="55.861259"
       x="60.325035"
       y="63.201244" /><rect
       style="fill:#cccccc;stroke-width:0.248835"
       id="rect2179"
       width="19.476858"
       height="94.518997"
       x="86.254227"
       y="24.543503" /><rect
       style="fill:#cccccc;stroke-width:0.216128"
       id="rect2181"
       width="19.476858"
       height="71.304756"
       x="105.30422"
       y="47.757748" /><rect
       style="fill:#cccccc;stroke-width:0.181234"
       id="rect2183"
       width="19.476858"
       height="50.139187"
       x="124.35421"
       y="68.923317" /><rect
       style="fill:#cccccc;stroke-width:0.260915"
       id="rect2185"
       width="19.476858"
       height="103.91898"
       x="139.42731"
       y="15.143521" /></g><g
     id="layer2"
     style="display:inline;fill:#b3b3b3"
     transform="translate(0,13.229167)"><rect
       style="fill:#b3b3b3;stroke-width:0.172895"
       id="rect1745"
       width="18.778967"
       height="50.401566"
       x="-158.74997"
       y="68.660927"
       ry="0" /><rect
       style="fill:#b3b3b3;stroke-width:0.223776"
       id="rect1747"
       width="18.778967"
       height="84.431923"
       x="-140.75833"
       y="34.630573"
       ry="0" /><rect
       style="fill:#b3b3b3;stroke-width:0.213709"
       id="rect1757"
       width="24.792362"
       height="58.328312"
       x="-122.2375"
       y="60.73418"
       ry="0" /><rect
       style="fill:#b3b3b3;stroke-width:0.263225"
       id="rect1759"
       width="24.792362"
       height="88.488953"
       x="-97.895813"
       y="30.573544"
       ry="0" /><rect
       style="fill:#b3b3b3;stroke-width:0.174266"
       id="rect1761"
       width="24.792362"
       height="38.784786"
       x="-73.554123"
       y="80.277702"
       ry="0" /><rect
       style="fill:#b3b3b3;stroke-width:0.187679"
       id="rect1763"
       width="16.62738"
       height="67.075066"
       x="-49.212475"
       y="51.987427"
       ry="0" /><rect
       style="fill:#b3b3b3;stroke-width:0.244244"
       id="rect1765"
       width="20.727444"
       height="91.128639"
       x="-32.808285"
       y="27.933851"
       ry="0" /><rect
       style="fill:#b3b3b3;stroke-width:0.172895"
       id="rect1767"
       width="18.778967"
       height="50.401566"
       x="-18.77895"
       y="68.660927"
       ry="0" /><rect
       style="fill:#b3b3b3;stroke-width:0.172895"
       id="rect2153"
       width="18.778967"
       height="50.401566"
       x="0"
       y="68.660927"
       ry="0" /><rect
       style="fill:#b3b3b3;stroke-width:0.223776"
       id="rect2155"
       width="18.778967"
       height="84.431923"
       x="17.991661"
       y="34.630573"
       ry="0" /><rect
       style="fill:#b3b3b3;stroke-width:0.213709"
       id="rect2157"
       width="24.792362"
       height="58.328312"
       x="36.512512"
       y="60.73418"
       ry="0" /><rect
       style="fill:#b3b3b3;stroke-width:0.263225"
       id="rect2159"
       width="24.792362"
       height="88.488953"
       x="60.854202"
       y="30.573544"
       ry="0" /><rect
       style="fill:#b3b3b3;stroke-width:0.174266"
       id="rect2161"
       width="24.792362"
       height="38.784786"
       x="85.195892"
       y="80.277702"
       ry="0" /><rect
       style="fill:#b3b3b3;stroke-width:0.187679"
       id="rect2163"
       width="16.62738"
       height="67.075066"
       x="109.53754"
       y="51.987427"
       ry="0" /><rect
       style="fill:#b3b3b3;stroke-width:0.244244"
       id="rect2165"
       width="20.727444"
       height="91.128639"
       x="125.94172"
       y="27.933851"
       ry="0" /><rect
       style="fill:#b3b3b3;stroke-width:0.172895"
       id="rect2167"
       width="18.778967"
       height="50.401566"
       x="139.97104"
       y="68.660927"
       ry="0" /></g><g
     id="layer1"
     style="display:inline;fill:#808080"
     transform="translate(0,13.229167)"><rect
       style="fill:#808080;stroke-width:0.23218"
       id="rect950"
       width="22.844582"
       height="53.8223"
       x="-158.75"
       y="65.240204" /><rect
       style="fill:#808080;stroke-width:0.168476"
       id="rect952"
       width="15.701801"
       height="41.231049"
       x="-136.51463"
       y="77.831451" /><rect
       style="fill:#808080;stroke-width:0.16871"
       id="rect954"
       width="15.745414"
       height="41.231049"
       x="-105.60281"
       y="77.831451" /><rect
       style="fill:#808080;stroke-width:0.255467"
       id="rect956"
       width="22.844582"
       height="65.160545"
       x="-90.476974"
       y="53.901951" /><rect
       style="fill:#808080;stroke-width:0.244331"
       id="rect1686"
       width="28.8116"
       height="47.259495"
       x="-68.251953"
       y="71.803001" /><rect
       style="fill:#808080;stroke-width:0.187436"
       id="rect1688"
       width="19.434862"
       height="41.231049"
       x="-33.401062"
       y="77.831451" /><rect
       style="fill:#808080;stroke-width:0.196196"
       id="rect1690"
       width="14.747885"
       height="59.531246"
       x="-14.495321"
       y="59.53125" /><rect
       style="fill:#808080;stroke-width:0.23218"
       id="rect2139"
       width="22.844582"
       height="53.8223"
       x="-1.4988011e-14"
       y="65.240204" /><rect
       style="fill:#808080;stroke-width:0.168476"
       id="rect2141"
       width="15.701801"
       height="41.231049"
       x="22.235292"
       y="77.831451" /><rect
       style="fill:#808080;stroke-width:0.16871"
       id="rect2143"
       width="15.745414"
       height="41.231049"
       x="53.146961"
       y="77.831451" /><rect
       style="fill:#808080;stroke-width:0.255467"
       id="rect2145"
       width="22.844582"
       height="65.160545"
       x="68.272797"
       y="53.901951" /><rect
       style="fill:#808080;stroke-width:0.244331"
       id="rect2147"
       width="28.8116"
       height="47.259495"
       x="90.497818"
       y="71.803001" /><rect
       style="fill:#808080;stroke-width:0.187436"
       id="rect2149"
       width="19.434862"
       height="41.231049"
       x="125.34871"
       y="77.831451" /><rect
       style="fill:#808080;stroke-width:0.194369"
       id="rect2151"
       width="14.474555"
       height="59.531246"
       x="144.25441"
       y="59.53125" /></g></svg>
