<svg   id="chart"   width="1000"   height="500"   viewBox="0 0 1000 500"   xmlns="http://www.w3.org/2000/svg" >     		     <path d="  M0,500  h40  v-1.792376516228046  q0,-4 -4,-4  h-32  q-4,0 -4,4  Z" fill="#444cf7" /> <path d="  M50,500  h40  v-11.983551237824997  q0,-4 -4,-4  h-32  q-4,0 -4,4  Z" fill="#444cf7" /> <path d="  M100,500  h40  v-39.94344983071022  q0,-4 -4,-4  h-32  q-4,0 -4,4  Z" fill="#444cf7" /> <path d="  M150,500  h40  v-58.90580695059964  q0,-4 -4,-4  h-32  q-4,0 -4,4  Z" fill="#444cf7" /> <path d="  M200,500  h40  v-60.59408518229634  q0,-4 -4,-4  h-32  q-4,0 -4,4  Z" fill="#444cf7" /> <path d="  M250,500  h40  v-103.54816489091087  q0,-4 -4,-4  h-32  q-4,0 -4,4  Z" fill="#444cf7" /> <path d="  M300,500  h40  v-109.49786904249004  q0,-4 -4,-4  h-32  q-4,0 -4,4  Z" fill="#444cf7" /> <path d="  M350,500  h40  v-134.5784674706366  q0,-4 -4,-4  h-32  q-4,0 -4,4  Z" fill="#444cf7" /> <path d="  M400,500  h40  v-150.90131675055795  q0,-4 -4,-4  h-32  q-4,0 -4,4  Z" fill="#444cf7" /> <path d="  M450,500  h40  v-223.59661165595344  q0,-4 -4,-4  h-32  q-4,0 -4,4  Z" fill="#444cf7" /> <path d="  M500,500  h40  v-214.91561843396096  q0,-4 -4,-4  h-32  q-4,0 -4,4  Z" fill="#444cf7" /> <path d="  M550,500  h40  v-218.5864971314677  q0,-4 -4,-4  h-32  q-4,0 -4,4  Z" fill="#444cf7" /> <path d="  M600,500  h40  v-174.7797797248826  q0,-4 -4,-4  h-32  q-4,0 -4,4  Z" fill="#444cf7" /> <path d="  M650,500  h40  v-227.68291096051678  q0,-4 -4,-4  h-32  q-4,0 -4,4  Z" fill="#444cf7" /> <path d="  M700,500  h40  v-232.15611572632258  q0,-4 -4,-4  h-32  q-4,0 -4,4  Z" fill="#444cf7" /> <path d="  M750,500  h40  v-337.9235897234058  q0,-4 -4,-4  h-32  q-4,0 -4,4  Z" fill="#444cf7" /> <path d="  M800,500  h40  v-273.4035836265375  q0,-4 -4,-4  h-32  q-4,0 -4,4  Z" fill="#444cf7" /> <path d="  M850,500  h40  v-421.47255512945367  q0,-4 -4,-4  h-32  q-4,0 -4,4  Z" fill="#444cf7" /> <path d="  M900,500  h40  v-301.0144370836475  q0,-4 -4,-4  h-32  q-4,0 -4,4  Z" fill="#444cf7" /> <path d="  M950,500  h40  v-369.0786821266675  q0,-4 -4,-4  h-32  q-4,0 -4,4  Z" fill="#444cf7" /> </svg>