<svg   id="chart"   width="1000"   height="500"   viewBox="0 0 1000 500"   xmlns="http://www.w3.org/2000/svg" >      <path d="M 0,494.20762348377195 C 10.6,492.16938853945254 31.8,491.64666342507144 53,484.016448762175 C 74.2,476.38623409927857 84.8,465.44100131184473 106,456.0565501692898 C 127.2,446.6720990267348 137.8,441.22432011971756 159,437.09419304940036 C 180.2,432.96406597908316 190.8,444.3343864057659 212,435.40591481770366 C 233.2,426.47744322964144 243.8,402.23259188112786 265,392.45183510908913 C 286.2,382.6710783370504 296.8,392.70819147345514 318,386.50213095750996 C 339.2,380.29607044156484 349.8,369.702222070977 371,361.4215325293634 C 392.2,353.1408429877498 402.8,362.90231208650545 424,345.09868324944205 C 445.2,327.2950544123787 455.8,285.2062486807272 477,272.40338834404656 C 498.2,259.60052800736594 508.8,280.0823586611419 530,281.08438156603904 C 551.2,282.0864044709362 561.8,269.38633512671663 583,277.4135028685323 C 604.2,285.440670610348 614.8,323.03950304092723 636,321.2202202751174 C 657.2,319.4009375093076 667.8,279.7923562397712 689,268.3170890394832 C 710.2,256.84182183919523 720.8,285.89202002625524 742,263.8438842736774 C 763.2,241.7957485210996 773.8,166.32590385663715 795,158.07641027659417 C 816.2,149.8269166965512 826.8,239.30620945467203 848,222.59641637346246 C 869.2,205.8866232922529 879.8,80.04961556196834 901,74.52744487054633 C 922.2,69.00527417912434 932.8,184.50678831579523 954,194.98556291635248 C 975.2,205.46433751690972 996.4,140.5341668819365 1007,126.9213178733325,L 1000 500,L 0 500Z" fill="#444cf71a" />   <path d="M 0,494.20762348377195 C 10.6,492.16938853945254 31.8,491.64666342507144 53,484.016448762175 C 74.2,476.38623409927857 84.8,465.44100131184473 106,456.0565501692898 C 127.2,446.6720990267348 137.8,441.22432011971756 159,437.09419304940036 C 180.2,432.96406597908316 190.8,444.3343864057659 212,435.40591481770366 C 233.2,426.47744322964144 243.8,402.23259188112786 265,392.45183510908913 C 286.2,382.6710783370504 296.8,392.70819147345514 318,386.50213095750996 C 339.2,380.29607044156484 349.8,369.702222070977 371,361.4215325293634 C 392.2,353.1408429877498 402.8,362.90231208650545 424,345.09868324944205 C 445.2,327.2950544123787 455.8,285.2062486807272 477,272.40338834404656 C 498.2,259.60052800736594 508.8,280.0823586611419 530,281.08438156603904 C 551.2,282.0864044709362 561.8,269.38633512671663 583,277.4135028685323 C 604.2,285.440670610348 614.8,323.03950304092723 636,321.2202202751174 C 657.2,319.4009375093076 667.8,279.7923562397712 689,268.3170890394832 C 710.2,256.84182183919523 720.8,285.89202002625524 742,263.8438842736774 C 763.2,241.7957485210996 773.8,166.32590385663715 795,158.07641027659417 C 816.2,149.8269166965512 826.8,239.30620945467203 848,222.59641637346246 C 869.2,205.8866232922529 879.8,80.04961556196834 901,74.52744487054633 C 922.2,69.00527417912434 932.8,184.50678831579523 954,194.98556291635248 C 975.2,205.46433751690972 996.4,140.5341668819365 1007,126.9213178733325" fill="none" stroke="#444cf7" stroke-width="4px" />   <g>   		<circle cx="0" cy="494.20762348377195" r="8" fill="#444cf7" />,		<circle cx="53" cy="484.016448762175" r="8" fill="#444cf7" />,		<circle cx="106" cy="456.0565501692898" r="8" fill="#444cf7" />,		<circle cx="159" cy="437.09419304940036" r="8" fill="#444cf7" />,		<circle cx="212" cy="435.40591481770366" r="8" fill="#444cf7" />,		<circle cx="265" cy="392.45183510908913" r="8" fill="#444cf7" />,		<circle cx="318" cy="386.50213095750996" r="8" fill="#444cf7" />,		<circle cx="371" cy="361.4215325293634" r="8" fill="#444cf7" />,		<circle cx="424" cy="345.09868324944205" r="8" fill="#444cf7" />,		<circle cx="477" cy="272.40338834404656" r="8" fill="#444cf7" />,		<circle cx="530" cy="281.08438156603904" r="8" fill="#444cf7" />,		<circle cx="583" cy="277.4135028685323" r="8" fill="#444cf7" />,		<circle cx="636" cy="321.2202202751174" r="8" fill="#444cf7" />,		<circle cx="689" cy="268.3170890394832" r="8" fill="#444cf7" />,		<circle cx="742" cy="263.8438842736774" r="8" fill="#444cf7" />,		<circle cx="795" cy="158.07641027659417" r="8" fill="#444cf7" />,		<circle cx="848" cy="222.59641637346246" r="8" fill="#444cf7" />,		<circle cx="901" cy="74.52744487054633" r="8" fill="#444cf7" />,		<circle cx="954" cy="194.98556291635248" r="8" fill="#444cf7" />,		<circle cx="1007" cy="126.9213178733325" r="8" fill="#444cf7" />   </g> </svg>