<svg   id="chart"   width="1000"   height="500"   viewBox="0 0 1000 500"   xmlns="http://www.w3.org/2000/svg" >      <path d="M 0,496.7776242674761 C 5.2,495.30541935950794 15.600000000000001,491.3943040694663 26,489.41659972763534 C 36.4,487.4388953858044 41.6,488.98341273982896 52,486.8891025583215 C 62.4,484.79479237681403 67.6,485.3810297664741 78,478.945048820098 C 88.4,472.5090678737219 93.6,460.74473752426564 104,454.7091978264409 C 114.4,448.6736581286162 119.6,452.90022424085686 130,448.7673503309744 C 140.4,444.63447642109196 145.6,440.34846246303425 156,434.0448282770286 C 166.4,427.741194091023 171.6,415.93677488476146 182,417.2491794009461 C 192.4,418.56158391713075 197.6,440.49717053306676 208,440.6068508579517 C 218.4,440.71653118283666 223.6,424.5472397386337 234,417.79758102537096 C 244.4,411.0479223121082 249.6,416.567664246667 260,406.8585572916378 C 270.4,397.1494503366086 275.6,380.9067295807885 286,369.2520462502249 C 296.4,357.5973629196613 301.6,346.4061769186355 312,348.58514063881967 C 322.4,350.76410435900385 327.6,381.1355428334094 338,380.1468648511458 C 348.4,379.1581868688822 353.6,347.64358435034654 364,343.64175072750174 C 374.4,339.63991710465694 379.6,351.0910009590024 390,360.13769673692184 C 400.4,369.1843925148413 405.6,384.44815761546795 416,388.87522961709897 C 426.4,393.30230161873 431.6,388.7045819298736 442,382.27305674507693 C 452.4,375.84153156028026 457.6,358.0066864817061 468,356.7176036931157 C 478.4,355.42852090452527 483.6,378.52612150939996 494,375.8276428021249 C 504.4,373.12916409484984 509.6,363.5971881294591 520,343.22521015674033 C 530.4,322.8532321840216 535.6,274.7095309781901 546,273.96775293853113 C 556.4,273.22597489887215 561.6,328.9394366933471 572,339.5163199584454 C 582.4,350.09320322354375 587.6,356.2553138213184 598,326.8521692640228 C 608.4,297.4490247067272 613.6,211.16937022763508 624,192.50059717196743 C 634.4,173.83182411629977 639.6,236.85444160243 650,233.5083039856845 C 660.4,230.162166368939 665.6,185.0153138616932 676,175.7699090882399 C 686.4,166.5245043147866 691.6,179.67797463086197 702,187.28128011841812 C 712.4,194.88458560597428 717.6,205.85751742276398 728,213.78643652602074 C 738.4,221.7153556292775 743.6,211.034262601634 754,226.92587563470198 C 764.4,242.81748866776996 769.6,283.77270732560527 780,293.24450169136065 C 790.4,302.71629605711604 795.6,291.66990279168283 806,274.2848474634789 C 816.4,256.899792135275 821.6,226.90203507792205 832,206.31922505034095 C 842.4,185.73641502275984 847.6,181.03981471891342 858,171.37079732557334 C 868.4,161.70177993223325 873.6,151.97427412795656 884,157.97413808364058 C 894.4,163.9740020393246 899.6,202.50071310126816 910,201.3701171039935 C 920.4,200.23952110671883 925.6,170.62691668221157 936,152.32115809726724 C 946.4,134.01539951232292 951.6,118.20186874532374 962,109.84132417927185 C 972.4,101.48077961321997 982.8,110.38301304946063 988,110.51843526700782,L 1000 500,L 0 500Z" fill="#444cf71a" />   <path d="M 0,496.7776242674761 C 5.2,495.30541935950794 15.600000000000001,491.3943040694663 26,489.41659972763534 C 36.4,487.4388953858044 41.6,488.98341273982896 52,486.8891025583215 C 62.4,484.79479237681403 67.6,485.3810297664741 78,478.945048820098 C 88.4,472.5090678737219 93.6,460.74473752426564 104,454.7091978264409 C 114.4,448.6736581286162 119.6,452.90022424085686 130,448.7673503309744 C 140.4,444.63447642109196 145.6,440.34846246303425 156,434.0448282770286 C 166.4,427.741194091023 171.6,415.93677488476146 182,417.2491794009461 C 192.4,418.56158391713075 197.6,440.49717053306676 208,440.6068508579517 C 218.4,440.71653118283666 223.6,424.5472397386337 234,417.79758102537096 C 244.4,411.0479223121082 249.6,416.567664246667 260,406.8585572916378 C 270.4,397.1494503366086 275.6,380.9067295807885 286,369.2520462502249 C 296.4,357.5973629196613 301.6,346.4061769186355 312,348.58514063881967 C 322.4,350.76410435900385 327.6,381.1355428334094 338,380.1468648511458 C 348.4,379.1581868688822 353.6,347.64358435034654 364,343.64175072750174 C 374.4,339.63991710465694 379.6,351.0910009590024 390,360.13769673692184 C 400.4,369.1843925148413 405.6,384.44815761546795 416,388.87522961709897 C 426.4,393.30230161873 431.6,388.7045819298736 442,382.27305674507693 C 452.4,375.84153156028026 457.6,358.0066864817061 468,356.7176036931157 C 478.4,355.42852090452527 483.6,378.52612150939996 494,375.8276428021249 C 504.4,373.12916409484984 509.6,363.5971881294591 520,343.22521015674033 C 530.4,322.8532321840216 535.6,274.7095309781901 546,273.96775293853113 C 556.4,273.22597489887215 561.6,328.9394366933471 572,339.5163199584454 C 582.4,350.09320322354375 587.6,356.2553138213184 598,326.8521692640228 C 608.4,297.4490247067272 613.6,211.16937022763508 624,192.50059717196743 C 634.4,173.83182411629977 639.6,236.85444160243 650,233.5083039856845 C 660.4,230.162166368939 665.6,185.0153138616932 676,175.7699090882399 C 686.4,166.5245043147866 691.6,179.67797463086197 702,187.28128011841812 C 712.4,194.88458560597428 717.6,205.85751742276398 728,213.78643652602074 C 738.4,221.7153556292775 743.6,211.034262601634 754,226.92587563470198 C 764.4,242.81748866776996 769.6,283.77270732560527 780,293.24450169136065 C 790.4,302.71629605711604 795.6,291.66990279168283 806,274.2848474634789 C 816.4,256.899792135275 821.6,226.90203507792205 832,206.31922505034095 C 842.4,185.73641502275984 847.6,181.03981471891342 858,171.37079732557334 C 868.4,161.70177993223325 873.6,151.97427412795656 884,157.97413808364058 C 894.4,163.9740020393246 899.6,202.50071310126816 910,201.3701171039935 C 920.4,200.23952110671883 925.6,170.62691668221157 936,152.32115809726724 C 946.4,134.01539951232292 951.6,118.20186874532374 962,109.84132417927185 C 972.4,101.48077961321997 982.8,110.38301304946063 988,110.51843526700782" fill="none" stroke="#444cf7" stroke-width="4px" />   <g>      </g> </svg>