<svg   id="chart"   width="1000"   height="500"   viewBox="0 0 1000 500"   xmlns="http://www.w3.org/2000/svg" >     		     <path d="  M0,500  h40  v-489.3696536173097  q0,-4 -4,-4  h-32  q-4,0 -4,4  Z" fill="#444cf7" /> <path d="  M50,500  h40  v-482.68149581006236  q0,-4 -4,-4  h-32  q-4,0 -4,4  Z" fill="#444cf7" /> <path d="  M100,500  h40  v-453.6973137086761  q0,-4 -4,-4  h-32  q-4,0 -4,4  Z" fill="#444cf7" /> <path d="  M150,500  h40  v-441.82984029502745  q0,-4 -4,-4  h-32  q-4,0 -4,4  Z" fill="#444cf7" /> <path d="  M200,500  h40  v-432.5429826880084  q0,-4 -4,-4  h-32  q-4,0 -4,4  Z" fill="#444cf7" /> <path d="  M250,500  h40  v-418.1981642471649  q0,-4 -4,-4  h-32  q-4,0 -4,4  Z" fill="#444cf7" /> <path d="  M300,500  h40  v-388.10224703075016  q0,-4 -4,-4  h-32  q-4,0 -4,4  Z" fill="#444cf7" /> <path d="  M350,500  h40  v-338.68497759660653  q0,-4 -4,-4  h-32  q-4,0 -4,4  Z" fill="#444cf7" /> <path d="  M400,500  h40  v-289.15059766267905  q0,-4 -4,-4  h-32  q-4,0 -4,4  Z" fill="#444cf7" /> <path d="  M450,500  h40  v-346.49012360119616  q0,-4 -4,-4  h-32  q-4,0 -4,4  Z" fill="#444cf7" /> <path d="  M500,500  h40  v-254.3150434835751  q0,-4 -4,-4  h-32  q-4,0 -4,4  Z" fill="#444cf7" /> <path d="  M550,500  h40  v-318.50239301173616  q0,-4 -4,-4  h-32  q-4,0 -4,4  Z" fill="#444cf7" /> <path d="  M600,500  h40  v-337.2369491923012  q0,-4 -4,-4  h-32  q-4,0 -4,4  Z" fill="#444cf7" /> <path d="  M650,500  h40  v-294.0701734158495  q0,-4 -4,-4  h-32  q-4,0 -4,4  Z" fill="#444cf7" /> <path d="  M700,500  h40  v-216.89416157277287  q0,-4 -4,-4  h-32  q-4,0 -4,4  Z" fill="#444cf7" /> <path d="  M750,500  h40  v-295.15477688563044  q0,-4 -4,-4  h-32  q-4,0 -4,4  Z" fill="#444cf7" /> <path d="  M800,500  h40  v-128.10639981028163  q0,-4 -4,-4  h-32  q-4,0 -4,4  Z" fill="#444cf7" /> <path d="  M850,500  h40  v-110.6595371840271  q0,-4 -4,-4  h-32  q-4,0 -4,4  Z" fill="#444cf7" /> <path d="  M900,500  h40  v-246.38613936164376  q0,-4 -4,-4  h-32  q-4,0 -4,4  Z" fill="#444cf7" /> <path d="  M950,500  h40  v-142.49198098540444  q0,-4 -4,-4  h-32  q-4,0 -4,4  Z" fill="#444cf7" /> </svg>