<svg   id="chart"   width="1000"   height="500"   viewBox="0 0 1000 500"   xmlns="http://www.w3.org/2000/svg" >      <path d="M 0,217.860850634747 C 10.600000000000001,225.68991940938616 31.8,280.09972195935336 53,257.0061945079427 C 74.2,233.9126670565321 84.8,95.71808389345784 106,102.39321337769383 C 127.2,109.0683428619298 137.79999999999998,261.0714389648163 159,290.38184192912263 C 180.2,319.69224489342895 190.8,228.9070638170151 212,248.94522819922543 C 233.2,268.98339258143574 243.8,410.9791214856312 265,390.5726638401742 C 286.2,370.16620619471723 296.8,166.77232906891663 318,146.91293997194055 C 339.2,127.05355087496444 349.8,270.87020942206885 371,291.2757183552937 C 392.2,311.6812272885185 402.8,282.5317573108959 424,248.94048463806473 C 445.2,215.3492119652336 455.8,144.8586038308806 477,123.31935499113797 C 498.2,101.78010615139532 508.8,147.1175953174544 530,141.24424043935147 C 551.2,135.37088556124854 561.8,81.92174661010586 583,93.95258060062326 C 604.2,105.98341459114067 614.8,188.37041140664405 636,201.3984103919385 C 657.2,214.42640937723297 667.8,132.98335906160793 689,159.09257552709562 C 710.2,185.2017919925833 720.8,336.81408239843427 742,331.94449271937697 C 763.2,327.07490304031967 773.8,167.2011718316433 795,134.74462713180924 C 816.2,102.28808243197518 826.8,166.05822883663342 848,169.66176922020668 C 869.2,173.26530960377994 879.8,110.90637038823236 901,152.76232904967554 C 922.2,194.61828771111874 932.8,393.6562888904864 954,378.94156252742266 C 975.2,364.22683616435893 996.4,139.13927029297 1007,79.18869723435682,L 1000 500,L 0 500Z" fill="#444cf71a" />   <path d="M 0,217.860850634747 C 10.600000000000001,225.68991940938616 31.8,280.09972195935336 53,257.0061945079427 C 74.2,233.9126670565321 84.8,95.71808389345784 106,102.39321337769383 C 127.2,109.0683428619298 137.79999999999998,261.0714389648163 159,290.38184192912263 C 180.2,319.69224489342895 190.8,228.9070638170151 212,248.94522819922543 C 233.2,268.98339258143574 243.8,410.9791214856312 265,390.5726638401742 C 286.2,370.16620619471723 296.8,166.77232906891663 318,146.91293997194055 C 339.2,127.05355087496444 349.8,270.87020942206885 371,291.2757183552937 C 392.2,311.6812272885185 402.8,282.5317573108959 424,248.94048463806473 C 445.2,215.3492119652336 455.8,144.8586038308806 477,123.31935499113797 C 498.2,101.78010615139532 508.8,147.1175953174544 530,141.24424043935147 C 551.2,135.37088556124854 561.8,81.92174661010586 583,93.95258060062326 C 604.2,105.98341459114067 614.8,188.37041140664405 636,201.3984103919385 C 657.2,214.42640937723297 667.8,132.98335906160793 689,159.09257552709562 C 710.2,185.2017919925833 720.8,336.81408239843427 742,331.94449271937697 C 763.2,327.07490304031967 773.8,167.2011718316433 795,134.74462713180924 C 816.2,102.28808243197518 826.8,166.05822883663342 848,169.66176922020668 C 869.2,173.26530960377994 879.8,110.90637038823236 901,152.76232904967554 C 922.2,194.61828771111874 932.8,393.6562888904864 954,378.94156252742266 C 975.2,364.22683616435893 996.4,139.13927029297 1007,79.18869723435682" fill="none" stroke="#444cf7" stroke-width="4px" />   <g>      </g> </svg>