<svg   id="chart"   width="1000"   height="500"   viewBox="0 0 1000 500"   xmlns="http://www.w3.org/2000/svg" >      <path d="M 0,6.99191758291442 C 10.6,8.302532511385753 31.799999999999997,8.495679968962149 53,13.544992225271084 C 74.2,18.594304481580018 84.8,20.919981154122283 106,32.2384788644591 C 127.2,43.55697657479591 137.79999999999998,63.671597905980335 159,70.13748077695516 C 180.2,76.60336364792998 190.8,58.079855213409 212,64.56789321933324 C 233.2,71.0559312252575 243.8,92.89299216328065 265,102.57767080657644 C 286.2,112.26234944987222 296.8,100.77629088112154 318,112.99128643581219 C 339.2,125.20628199050283 349.8,155.1143061684066 371,163.65264858002968 C 392.2,172.19099099165274 402.8,155.40362089639626 424,155.68299849392744 C 445.2,155.96237609145862 455.8,169.58839942760537 477,165.04953656768552 C 498.2,160.5106737077657 508.8,134.51259270082934 530,132.9886841943283 C 551.2,131.46477568782726 561.8,130.35431025090406 583,157.42999403518024 C 604.2,184.50567781945642 614.8,248.9625812159887 636,268.3671031157092 C 657.2,287.7716250154297 667.8,261.32392703203124 689,254.45260353378276 C 710.2,247.58128003553432 720.8,216.40404265273017 742,234.01048562446695 C 763.2,251.61692859620373 773.8,342.1663010468733 795,342.48481839246665 C 816.2,342.80333573806 826.8,226.61884653724633 848,235.60307235243377 C 869.2,244.5872981676212 879.8,352.5389375226019 901,387.4059474684039 C 922.2,422.2729574142059 932.8,393.05021449776984 954,409.93812208144374 C 975.2,426.82602966511763 996.4,459.46401272570733 1007,471.84548538677325,L 1000 500,L 0 500Z" fill="#444cf71a" />   <path d="M 0,6.99191758291442 C 10.6,8.302532511385753 31.799999999999997,8.495679968962149 53,13.544992225271084 C 74.2,18.594304481580018 84.8,20.919981154122283 106,32.2384788644591 C 127.2,43.55697657479591 137.79999999999998,63.671597905980335 159,70.13748077695516 C 180.2,76.60336364792998 190.8,58.079855213409 212,64.56789321933324 C 233.2,71.0559312252575 243.8,92.89299216328065 265,102.57767080657644 C 286.2,112.26234944987222 296.8,100.77629088112154 318,112.99128643581219 C 339.2,125.20628199050283 349.8,155.1143061684066 371,163.65264858002968 C 392.2,172.19099099165274 402.8,155.40362089639626 424,155.68299849392744 C 445.2,155.96237609145862 455.8,169.58839942760537 477,165.04953656768552 C 498.2,160.5106737077657 508.8,134.51259270082934 530,132.9886841943283 C 551.2,131.46477568782726 561.8,130.35431025090406 583,157.42999403518024 C 604.2,184.50567781945642 614.8,248.9625812159887 636,268.3671031157092 C 657.2,287.7716250154297 667.8,261.32392703203124 689,254.45260353378276 C 710.2,247.58128003553432 720.8,216.40404265273017 742,234.01048562446695 C 763.2,251.61692859620373 773.8,342.1663010468733 795,342.48481839246665 C 816.2,342.80333573806 826.8,226.61884653724633 848,235.60307235243377 C 869.2,244.5872981676212 879.8,352.5389375226019 901,387.4059474684039 C 922.2,422.2729574142059 932.8,393.05021449776984 954,409.93812208144374 C 975.2,426.82602966511763 996.4,459.46401272570733 1007,471.84548538677325" fill="none" stroke="#444cf7" stroke-width="4px" />   <g>   		<circle cx="0" cy="6.99191758291442" r="8" fill="#444cf7" />,		<circle cx="53" cy="13.544992225271084" r="8" fill="#444cf7" />,		<circle cx="106" cy="32.2384788644591" r="8" fill="#444cf7" />,		<circle cx="159" cy="70.13748077695516" r="8" fill="#444cf7" />,		<circle cx="212" cy="64.56789321933324" r="8" fill="#444cf7" />,		<circle cx="265" cy="102.57767080657644" r="8" fill="#444cf7" />,		<circle cx="318" cy="112.99128643581219" r="8" fill="#444cf7" />,		<circle cx="371" cy="163.65264858002968" r="8" fill="#444cf7" />,		<circle cx="424" cy="155.68299849392744" r="8" fill="#444cf7" />,		<circle cx="477" cy="165.04953656768552" r="8" fill="#444cf7" />,		<circle cx="530" cy="132.9886841943283" r="8" fill="#444cf7" />,		<circle cx="583" cy="157.42999403518024" r="8" fill="#444cf7" />,		<circle cx="636" cy="268.3671031157092" r="8" fill="#444cf7" />,		<circle cx="689" cy="254.45260353378276" r="8" fill="#444cf7" />,		<circle cx="742" cy="234.01048562446695" r="8" fill="#444cf7" />,		<circle cx="795" cy="342.48481839246665" r="8" fill="#444cf7" />,		<circle cx="848" cy="235.60307235243377" r="8" fill="#444cf7" />,		<circle cx="901" cy="387.4059474684039" r="8" fill="#444cf7" />,		<circle cx="954" cy="409.93812208144374" r="8" fill="#444cf7" />,		<circle cx="1007" cy="471.84548538677325" r="8" fill="#444cf7" />   </g> </svg>