<svg width="50" height="44" viewBox="0 0 50 44" fill="none" xmlns="http://www.w3.org/2000/svg">
<g clip-path="url(#clip0_53_101)" filter="url(#filter0_d_53_101)">
<path d="M20.0781 12.7266H31.1523V1.05469C31.1523 0.4725 30.6011 0 29.9219 0H5.23047C4.55125 0 4 0.4725 4 1.05469V22.2188C4 22.8009 4.55125 23.2734 5.23047 23.2734H18.8477V13.7812C18.8477 13.1991 19.3989 12.7266 20.0781 12.7266Z" fill="black"/>
<path d="M44.7695 12.7266H31.1523V22.2188C31.1523 22.8009 30.6011 23.2734 29.9219 23.2734H18.8477V34.9453C18.8477 35.5275 19.3989 36 20.0781 36H44.7695C45.4487 36 46 35.5275 46 34.9453V13.7813C46 13.1991 45.4487 12.7266 44.7695 12.7266Z" fill="black"/>
</g>
<defs>
<filter id="filter0_d_53_101" x="0" y="0" width="50" height="44" filterUnits="userSpaceOnUse" color-interpolation-filters="sRGB">
<feFlood flood-opacity="0" result="BackgroundImageFix"/>
<feColorMatrix in="SourceAlpha" type="matrix" values="0 0 0 0 0 0 0 0 0 0 0 0 0 0 0 0 0 0 127 0" result="hardAlpha"/>
<feOffset dy="4"/>
<feGaussianBlur stdDeviation="2"/>
<feComposite in2="hardAlpha" operator="out"/>
<feColorMatrix type="matrix" values="0 0 0 0 0 0 0 0 0 0 0 0 0 0 0 0 0 0 0.25 0"/>
<feBlend mode="normal" in2="BackgroundImageFix" result="effect1_dropShadow_53_101"/>
<feBlend mode="normal" in="SourceGraphic" in2="effect1_dropShadow_53_101" result="shape"/>
</filter>
<clipPath id="clip0_53_101">
<rect width="42" height="36" fill="white" transform="translate(4)"/>
</clipPath>
</defs>
</svg>
